<?xml version="1.0" encoding="utf-8"?>
<!-- Generator: Adobe Illustrator 23.0.3, SVG Export Plug-In . SVG Version: 6.00 Build 0)  -->
<svg version="1.1" id="Layer_1" xmlns="http://www.w3.org/2000/svg" xmlns:xlink="http://www.w3.org/1999/xlink" x="0px" y="0px"
	 viewBox="0 0 2122.5 339.9" style="enable-background:new 0 0 2122.5 339.9;" xml:space="preserve">
<style type="text/css">
	.st0{fill-rule:evenodd;clip-rule:evenodd;fill:#D44739;}
	.st1{fill-rule:evenodd;clip-rule:evenodd;fill:#F7BC4B;}
	.st2{fill-rule:evenodd;clip-rule:evenodd;fill:#ED7562;}
	.st3{fill-rule:evenodd;clip-rule:evenodd;fill:#F5CA54;}
	.st4{fill:#343637;}
	.st5{font-family:'Fieldwork-Hum-Light';}
	.st6{font-size:277px;}
</style>
<path class="st0" d="M0,170l120.3,116.3c69.9,69.7,182.1,71.9,250,4.2c31.1-31,49.6-78.9,49-120.5H0z"/>
<path class="st1" d="M339.9,170c0.5,23.7-8,51.7-23.6,69.9c-36.7,42.6-98.7,42.7-137.4,1L113.3,170H339.9z"/>
<path class="st2" d="M0,170L120.3,53.7c69.9-69.7,182.1-71.9,250-4.2c31.1,31,49.6,78.9,49,120.5H0z"/>
<path class="st3" d="M339.9,170c0.5-23.7-8-51.7-23.6-69.9c-36.7-42.6-98.7-42.7-137.4-1L113.3,170H339.9z"/>
<text transform="matrix(1 0 0 1 500.3074 234.9599)" class="st4 st5 st6">schubrakede</text>
</svg>
