<?xml version="1.0" encoding="utf-8"?>
<!-- Generator: Adobe Illustrator 23.0.3, SVG Export Plug-In . SVG Version: 6.00 Build 0)  -->
<svg version="1.1" id="Layer_1" xmlns="http://www.w3.org/2000/svg" xmlns:xlink="http://www.w3.org/1999/xlink" x="0px" y="0px"
	 viewBox="0 0 2122.5 339.9" style="enable-background:new 0 0 2122.5 339.9;" xml:space="preserve">
<style type="text/css">
	.st0{fill-rule:evenodd;clip-rule:evenodd;fill:#D44739;}
	.st1{fill-rule:evenodd;clip-rule:evenodd;fill:#F7BC4B;}
	.st2{fill-rule:evenodd;clip-rule:evenodd;fill:#ED7562;}
	.st3{fill-rule:evenodd;clip-rule:evenodd;fill:#F5CA54;}
	.st4{display:none;fill:#343637;enable-background:new    ;}
	.st5{font-family:'Fieldwork-Hum-Light';}
	.st6{font-size:277px;}
	.st7{enable-background:new    ;}
	.st8{fill:#343637;}
</style>
<path class="st0" d="M0,170l120.3,116.3c69.9,69.7,182.1,71.9,250,4.2c31.1-31,49.6-78.9,49-120.5H0z"/>
<path class="st1" d="M339.9,170c0.5,23.7-8,51.7-23.6,69.9c-36.7,42.6-98.7,42.7-137.4,1L113.3,170H339.9z"/>
<path class="st2" d="M0,170L120.3,53.7c69.9-69.7,182.1-71.9,250-4.2c31.1,31,49.6,78.9,49,120.5H0z"/>
<path class="st3" d="M339.9,170c0.5-23.7-8-51.7-23.6-69.9c-36.7-42.6-98.7-42.7-137.4-1L113.3,170H339.9z"/>
<text transform="matrix(1 0 0 1 500.3074 234.9599)" class="st4 st5 st6">schubrakede</text>
<g class="st7">
	<path class="st8" d="M575,161.8c25.8,5.1,39.5,16.8,39.5,37.1c0,25.3-20.2,38.8-51.7,38.8c-18.4,0-36.5-3.7-48.7-9.7l3-19.2
		c11.9,6.1,28.5,9.7,44.2,9.7c20.8,0,32.1-6.5,32.1-18.5c0-11.6-10-16.5-28.3-20l-16.9-3.4c-21.5-4.2-35.3-15.6-35.3-35.6
		c0-23.1,20.4-38.5,52.7-38.5c15.7,0,31.5,3,41.7,7.2l-2.7,18.8c-10.5-4.2-24.9-6.9-37.6-6.9c-21.1,0-32.7,7-32.7,18.9
		c0,11.2,8.9,15.1,27.2,18.7L575,161.8z"/>
	<path class="st8" d="M711.2,102.4c17.6,0,32.6,5.1,39,8.7l-2.3,19.3c-8.7-4.2-21.6-7.8-36.7-7.8c-30.4,0-51.3,19.1-51.3,47.1
		c0,28.3,21,47.9,51.5,47.9c13.1,0,27.9-3.4,37.5-8.3l3.5,19.6c-11.5,5.1-26.6,8.8-41,8.8c-43.6,0-73.3-27.6-73.3-68
		C638.1,129.7,667.8,102.4,711.2,102.4z"/>
	<path class="st8" d="M904.4,156v79h-21.4v-73.7c0-25.3-13.3-38.5-36.5-38.5c-22.2,0-40.2,15.3-40.2,39V235h-21.5V44.5h21.6v80.1
		c7.3-12,22.7-22.2,43.4-22.2C883.9,102.4,904.4,122.6,904.4,156z"/>
	<path class="st8" d="M945.7,184.2v-79.1h21.4V179c0,25.3,13.1,38.4,36.2,38.4c22.5,0,40.2-15.1,40.2-38.8v-73.4h21.5V235h-21.5
		v-19.5c-7.3,12.2-22.6,22.2-43.6,22.2C966.1,237.7,945.7,217.5,945.7,184.2z"/>
	<path class="st8" d="M1109.9,235V44.5h21.5v82c9.7-13.9,26.8-24.1,50-24.1c37.2,0,65.5,28.4,65.5,67.4s-28.3,67.9-65.5,67.9
		c-23.3,0-40.3-10-50-23.8V235H1109.9z M1225.5,169.8c0-26.9-19.2-47.9-46.3-47.9c-27.7,0-48.2,21-48.2,47.9
		c0,26.8,20.4,48.4,48.2,48.4C1206.3,218.2,1225.5,196.5,1225.5,169.8z"/>
	<path class="st8" d="M1303.6,124.3c7.3-15,20.2-21.9,35-21.9c9.2,0,16,2.3,18.4,3.4l-2.2,19.9c-3.7-1.4-8.7-3.2-17-3.2
		c-17.3,0-34.2,11.4-34.2,40.4V235h-21.6V105.1h21.6V124.3z"/>
	<path class="st8" d="M1464.9,235v-20.7c-9.6,14.6-27.1,23.4-46.1,23.4c-26.9,0-45.3-14.2-45.3-37.9c0-25.2,22.5-39.6,57.5-39.6
		c13.4,0,25.4,2.3,33.1,4.6v-10.1c0-20.7-13.1-32.3-38.3-32.3c-14.1,0-31.4,4.1-42.1,10l-2.3-19.3c11.5-6.2,29.9-10.5,45.6-10.5
		c39.2,0,58.4,18.8,58.4,52.2V235H1464.9z M1464.1,187.9v-7.4c-8.4-2.3-18.4-4.5-33.8-4.5c-21.9,0-36,8.1-36,23
		c0,14.1,11.1,21.8,26.9,21.8C1443.4,220.8,1461.4,205.7,1464.1,187.9z"/>
	<path class="st8" d="M1528.6,44.5h21.5v114h27.7l34.9-53.4h23.9l-42.1,63.3l48.8,66.5h-25.2l-41.8-57.9h-26.4V235h-21.5V44.5z"/>
	<path class="st8" d="M1776.3,225c-15.1,8.8-31.5,12.7-49,12.7c-43.7,0-73.8-27.6-73.8-67.6c0-38.7,27.9-67.5,66.8-67.5
		c44,0,68.8,35.4,61.8,75.3h-106.2c3.7,25.6,25.3,39.6,50.4,39.6c15.1,0,28.7-2.6,46.1-12L1776.3,225z M1762.5,160.3
		c-1.5-22.2-16.8-38.1-41.5-38.1c-24.5,0-42.5,16-44.5,38.1H1762.5z"/>
	<path class="st8" d="M1923.9,213.9c-9.7,13.8-26.8,23.8-50,23.8c-37.2,0-65.5-28.9-65.5-67.9s28.3-67.4,65.5-67.4
		c23.3,0,40.3,10.1,50,24.1v-82h21.5V235h-21.5V213.9z M1924.1,169.8c0-26.9-20.4-47.9-48.2-47.9c-27.1,0-46.3,21-46.3,47.9
		c0,26.8,19.2,48.4,46.3,48.4C1903.7,218.2,1924.1,196.5,1924.1,169.8z"/>
	<path class="st8" d="M2103.1,225c-15.1,8.8-31.5,12.7-49,12.7c-43.7,0-73.8-27.6-73.8-67.6c0-38.7,27.9-67.5,66.8-67.5
		c44,0,68.8,35.4,61.8,75.3h-106.2c3.7,25.6,25.3,39.6,50.4,39.6c15.1,0,28.7-2.6,46.1-12L2103.1,225z M2089.3,160.3
		c-1.5-22.2-16.8-38.1-41.5-38.1c-24.5,0-42.5,16-44.5,38.1H2089.3z"/>
</g>
</svg>
