<?xml version="1.0" encoding="UTF-8"?>
<svg width="87px" height="87px" viewBox="0 0 87 87" version="1.1" xmlns="http://www.w3.org/2000/svg" xmlns:xlink="http://www.w3.org/1999/xlink">
    <!-- Generator: Sketch 54.1 (76490) - https://sketchapp.com -->
    <title>Rocket</title>
    <desc>Created with Sketch.</desc>
    <defs>
        <polygon id="path-1" points="0.225931718 0.0387092511 69.7122952 0.0387092511 69.7122952 59.7935286 0.225931718 59.7935286"></polygon>
        <polygon id="path-3" points="0.155411894 0.0387092511 19.1219868 0.0387092511 19.1219868 13.7095903 0.155411894 13.7095903"></polygon>
        <polygon id="path-5" points="0.0856585903 0.0387092511 13.756348 0.0387092511 13.756348 19.0066256 0.0856585903 19.0066256"></polygon>
    </defs>
    <g id="Newnewnewn" stroke="none" stroke-width="1" fill="none" fill-rule="evenodd">
        <g id="-" transform="translate(-41.000000, -161.000000)">
            <g id="Rocket" transform="translate(41.000000, 161.000000)">
                <g id="Group-3" stroke-width="1" transform="translate(17.246696, -0.038709)">
                    <mask id="mask-2" fill="white">
                        <use xlink:href="#path-1"></use>
                    </mask>
                    <g id="Clip-2"></g>
                    <path d="M69.7124868,0.0387092511 C14.3042181,6.06010573 2.35340749,45.2626123 0.225931718,50.151859 C3.48555727,53.3658767 6.69995815,56.579511 9.91397577,59.7935286 C29.8319934,39.8758943 49.7488612,19.9574934 69.7124868,0.0387092511" id="Fill-1" fill="#797F88" mask="url(#mask-2)"></path>
                </g>
                <path d="M53.9595463,33.000978 L68.8514934,18.0626564 C64.7325991,13.9429956 58.0332159,13.9429956 53.9595463,18.0626564 C49.8391189,22.1823172 49.8391189,28.8813172 53.9595463,33.000978" id="Fill-4" fill="#FFFFFF"></path>
                <path d="M55.6344304,31.2807925 L67.1329943,19.7829952 C63.9638181,16.6138189 58.8036066,16.6138189 55.6344304,19.7829952 C52.4652542,22.9521714 52.4652542,28.1123828 55.6344304,31.2807925" id="Fill-6" fill="#575A5E"></path>
                <g id="Group-10" stroke-width="1" transform="translate(67.837004, -0.038709)">
                    <mask id="mask-4" fill="white">
                        <use xlink:href="#path-3"></use>
                    </mask>
                    <g id="Clip-9"></g>
                    <path d="M19.1221784,0.0387092511 C12.1058392,0.763070485 5.81309471,2.07611894 0.155411894,3.75134802 C0.833398678,7.41761233 2.59907709,10.8581366 5.45129736,13.7095903 L19.1221784,0.0387092511 Z" id="Fill-8" fill="#E8E8EF" mask="url(#mask-4)"></path>
                </g>
                <polygon id="Fill-11" fill="#6D6E71" points="27.1605568 59.7548577 20.8225877 53.4628797 16.2951383 55.0472762 24.0822132 62.8335846"></polygon>
                <path d="M33.408,24.2191137 C18.2883965,25.2148229 7.78515859,33.4089198 2.76023789,46.5823295 C8.46506167,43.18703 16.8400573,43.0053648 20.4158722,43.1410388 C22.8139295,38.0708934 26.7986828,31.1450035 33.408,24.2191137" id="Fill-13" fill="#E8E8EF"></path>
                <path d="M48.0287524,38.8859339 L48.0287524,38.8859339 C47.3051577,38.1171145 46.0373339,38.0711233 45.3133559,38.8859339 L21.5477921,65.3684273 L48.0287524,38.8859339 Z" id="Fill-15" fill="#FFFFFF"></path>
                <g id="Group-19" stroke-width="1" transform="translate(26.828194, -0.038709)" fill="#62666E">
                    <path d="M60.130989,0.0387092511 C54.0662841,55.4029031 14.8626278,67.3537137 9.9749141,69.4808062 C6.76089648,66.2671718 3.54649559,63.0079295 0.332477974,59.7935286 C20.2504956,39.8758943 40.1673634,19.9574934 60.130989,0.0387092511" id="Fill-17"></path>
                </g>
                <path d="M53.9595463,33.000978 L68.8514934,18.0626564 C72.9715374,22.1823172 72.9715374,28.8813172 68.8514934,33.000978 C64.7325991,37.1206388 58.0332159,37.1206388 53.9595463,33.000978" id="Fill-20" fill="#D4D4D4"></path>
                <path d="M55.6344304,31.2807925 L67.1329943,19.7829952 C70.3458621,22.9521714 70.3458621,28.1123828 67.1329943,31.2807925 C63.9638181,34.4948101 58.8036066,34.4948101 55.6344304,31.2807925" id="Fill-22" fill="#404245"></path>
                <g id="Group-26" stroke-width="1" transform="translate(73.202643, -0.038709)">
                    <mask id="mask-6" fill="white">
                        <use xlink:href="#path-5"></use>
                    </mask>
                    <g id="Clip-25"></g>
                    <path d="M13.7565396,0.0387092511 C12.9877203,7.01059031 11.6746718,13.3025683 9.99944273,19.0066256 C6.37840308,18.2822643 2.89265419,16.5169692 0.0856585903,13.7095903 L13.7565396,0.0387092511 Z" id="Fill-24" fill="#D0D0D6" mask="url(#mask-6)"></path>
                </g>
                <polygon id="Fill-27" fill="#45474C" points="27.1605568 59.7548577 33.498526 66.0920604 31.9141295 70.6195097 24.0822132 62.8335846"></polygon>
                <path d="M62.6963009,53.5081811 C61.6994419,68.6730093 53.5528692,79.1302559 40.3338515,84.2000181 C43.7291511,78.4959608 43.9096665,70.0761238 43.8196004,66.4999256 C48.8441379,64.1007185 55.770411,60.1174982 62.6963009,53.5081811" id="Fill-29" fill="#D0D0D6"></path>
                <path d="M48.0287524,38.8859339 L48.0287524,38.8859339 C48.7991048,39.6555198 48.8443295,40.9233436 48.0287524,41.6024802 L21.5477921,65.3684273 L48.0287524,38.8859339 Z" id="Fill-31" fill="#E6E6E6"></path>
                <path d="M0,86.9612907 L0,76.278304 C0,69.8498855 5.20543612,64.5988414 11.6338546,64.5988414 C14.5749912,64.5988414 17.246696,65.820674 19.1928899,67.7668678 L0,86.9612907 Z" id="Fill-33" fill="#ED7562"></path>
                <path d="M15.7072943,71.2083119 C14.6655938,70.1666115 13.2184044,69.4870916 11.6340079,69.4870916 C7.9209859,69.4870916 4.88863348,72.5658185 4.88863348,76.2784573 L4.88863348,82.0729639 L15.7072943,71.2083119 Z" id="Fill-35" fill="#F5CA54"></path>
                <path d="M0,86.9612907 L10.6826035,86.9612907 C17.0657974,86.9612907 22.3168414,81.7102467 22.3168414,75.2818282 C22.3168414,72.3399251 21.093859,69.6689868 19.1928899,67.7668678 L0,86.9612907 Z" id="Fill-37" fill="#D54739"></path>
                <path d="M15.7072943,71.2083119 C16.7946026,72.2492458 17.4273648,73.6979683 17.4273648,75.2815982 C17.4273648,78.994237 14.3942458,82.0729639 10.6827568,82.0729639 L4.88863348,82.0729639 L15.7072943,71.2083119 Z" id="Fill-39" fill="#F6BC4B"></path>
            </g>
        </g>
    </g>
</svg>